<svg id="Expnaded" xmlns="http://www.w3.org/2000/svg" viewBox="0 0 96 96"><path d="M28.87,42.85a1,1,0,0,1-1-1V37a3.46,3.46,0,0,1,6.91,0v2a1,1,0,0,1-2,0V37a1.46,1.46,0,0,0-2.91,0v4.9A1,1,0,0,1,28.87,42.85Z"/><path d="M65.88,92.42a.9.9,0,0,1-.28,0L50.94,88.21l-2.07,3.7a1,1,0,0,1-1.74,0l-2.07-3.7L30.4,92.38a1,1,0,0,1-.88-.16,1,1,0,0,1-.4-.8V87.2a1,1,0,0,1,.45-.84l12.81-8.44L40,54.16,3.26,63.93a1,1,0,0,1-.87-.17A1,1,0,0,1,2,63V57.15a1,1,0,0,1,.49-.86L40.17,34V19.15a17.65,17.65,0,0,1,3.3-10.31l3.29-4.62a1.58,1.58,0,0,1,2.48,0l3.29,4.62a17.65,17.65,0,0,1,3.3,10.31V34L93.51,56.29a1,1,0,0,1,.49.86V63a1,1,0,0,1-.39.79,1,1,0,0,1-.87.17L56,54.16,53.62,77.92l12.81,8.44a1,1,0,0,1,.45.84v4.22a1,1,0,0,1-1,1ZM50.45,86a1.26,1.26,0,0,1,.27,0l14.16,4V87.74L52,79.26a1,1,0,0,1-.44-.94l2.59-25.53a1,1,0,0,1,1.26-.86L92,61.67v-4L54.33,35.44a1,1,0,0,1-.5-.86V19.15A15.71,15.71,0,0,0,50.91,10L48,5.93,45.09,10a15.71,15.71,0,0,0-2.92,9.15V34.58a1,1,0,0,1-.5.86L4,57.72v4l36.58-9.74a1,1,0,0,1,1.26.86l2.59,25.53a1,1,0,0,1-.44.94L31.12,87.74v2.35l14.16-4a1,1,0,0,1,1.14.48L48,89.37l1.58-2.82A1,1,0,0,1,50.45,86Z"/><path d="M67.13,42.85a1,1,0,0,1-1-1V37a1.46,1.46,0,0,0-2.91,0v2a1,1,0,0,1-2,0V37a3.46,3.46,0,0,1,6.91,0v4.9A1,1,0,0,1,67.13,42.85Z"/></svg>