<svg width="55" height="67" viewBox="0 0 55 67" fill="none" xmlns="http://www.w3.org/2000/svg">
<path d="M0.0524823 64.9511L2.54789 53.4175L4.97603 42.1923C4.97662 42.1899 4.97751 42.1879 4.9781 42.1851L8.26411 26.9967L8.78507 24.5875C8.78537 24.5863 8.78567 24.5855 8.78596 24.5843L9.58659 20.8843C9.66889 20.5035 9.86094 20.2087 10.1014 20.0387C10.1881 19.8663 10.2825 19.7007 10.3937 19.5499C12.0413 17.3163 15.4683 18.7887 19.2629 22.1235C20.9459 19.6003 21.8671 16.3659 21.8671 12.9391C21.8671 9.27715 20.8155 5.83435 18.9056 3.24515C18.5024 2.69835 18.5024 1.81195 18.9056 1.26515C19.3089 0.718747 19.9626 0.718747 20.3659 1.26515C24.9009 7.41475 25.1003 17.2451 20.9706 23.7243C22.9153 25.6567 24.9 27.9883 26.7462 30.4919C26.747 30.4931 26.7482 30.4947 26.7491 30.4959C30.4219 27.4727 34.6551 25.9207 39.0754 26.0611C39.6453 26.0787 40.097 26.7199 40.0837 27.4931C40.0704 28.2659 39.602 28.8799 39.0276 28.8603C35.1699 28.7363 31.4664 30.0327 28.2206 32.5691C29.5882 34.5699 30.8236 36.5963 31.8762 38.5659C36.2183 36.3411 41.3156 37.5899 44.8055 42.3219C45.2087 42.8687 45.2087 43.7551 44.8055 44.3019C44.4022 44.8483 43.7485 44.8483 43.3452 44.3019C41.4354 41.7123 38.8963 40.2864 36.1956 40.2864C35.1194 40.2864 34.0701 40.5164 33.0748 40.9528C33.4303 41.7104 33.7545 42.4535 34.0436 43.1771C36.3 48.8247 35.7091 51.4535 34.8162 52.6647C34.7032 52.8175 34.5802 52.9491 34.4513 53.0683C34.3256 53.3903 34.1091 53.6463 33.8309 53.7571L31.1033 54.8439L31.1027 54.8443L25.4464 57.0955L25.4452 57.0959L13.4859 61.8539L12.6794 62.1751C12.6785 62.1755 12.6779 62.1755 12.677 62.1759L1.33367 66.6891C1.23779 66.7271 1.14015 66.7459 1.04309 66.7459C0.772873 66.7459 0.509146 66.6023 0.312971 66.3359C0.0462906 65.9731 -0.0537177 65.4423 0.0524823 64.9511ZM4.49813 54.3507C6.63364 54.2875 8.35674 51.9123 8.35674 49.0015C8.35674 47.1815 7.68738 45.5328 6.61683 44.5584L4.62882 53.7471L4.49813 54.3507ZM9.22581 32.5015C10.6737 36.1951 13.2095 40.6219 16.2421 44.7367C19.2708 48.8439 22.5347 52.2823 25.2629 54.2499L29.3599 52.6191C26.0585 50.7051 22.0061 46.5271 18.4631 41.7231C14.9193 36.9179 11.8386 31.4223 10.4273 26.9455L10.0241 28.8087L9.22581 32.5015ZM32.2281 44.5107C31.9166 43.7315 31.5591 42.9251 31.1641 42.1019C30.3994 42.6987 29.6867 43.4331 29.0463 44.3019C28.8445 44.5751 28.5802 44.7119 28.3161 44.7119C28.0521 44.7119 27.7875 44.5751 27.586 44.3019C27.1828 43.7551 27.1828 42.8687 27.586 42.3219C28.3206 41.3259 29.1265 40.4852 29.9814 39.7976C28.9637 37.9316 27.7757 36.0111 26.4594 34.1123C25.5476 35.0031 24.6794 35.9963 23.867 37.0979C23.6652 37.3711 23.4009 37.5079 23.1368 37.5079C22.8728 37.5079 22.6082 37.3711 22.4067 37.0979C22.0034 36.5511 22.0034 35.6647 22.4067 35.1179C23.2233 34.0107 24.0903 33.0004 24.9989 32.0863C19.1992 24.3327 14.4081 21.2519 12.5516 21.2519C12.2248 21.2519 11.9885 21.3475 11.8543 21.5299C10.9442 22.7639 12.967 30.3115 19.9234 39.7435C26.8789 49.1755 32.4453 51.9204 33.3559 50.6848C33.6565 50.2776 33.8073 48.4631 32.2281 44.5107ZM17.2905 56.9867L15.8816 57.0619C15.5435 57.0747 15.2176 56.8703 15.014 56.5007L14.1691 54.9671L13.7859 56.8067C13.6936 57.2499 13.4464 57.6031 13.1245 57.7515L11.7858 58.3683L12.739 59.2331L17.0053 57.5343L17.2905 56.9867ZM10.158 60.2599L8.90012 59.1183C8.57356 58.8219 8.39921 58.3003 8.45054 57.7719C8.50187 57.2435 8.77003 56.8007 9.14203 56.6291L11.9463 55.3367L12.7511 51.4752C12.8578 50.9624 13.1703 50.5759 13.5567 50.4791C13.9437 50.3811 14.3367 50.5911 14.5718 51.0179L16.3436 54.2347L19.3001 54.0775C19.6945 54.0595 20.0603 54.3399 20.2479 54.8083C20.4332 55.2711 20.4104 55.8351 20.191 56.2683L22.5456 55.3315C20.0615 53.1919 17.333 50.1763 14.7815 46.7163C12.2283 43.2515 10.0043 39.5511 8.42813 36.1864L7.21597 41.7895C9.1668 43.1783 10.4217 45.9295 10.4217 49.0015C10.4217 53.4955 7.72514 57.1519 4.41081 57.1519C4.24001 57.1519 4.0695 57.1383 3.89929 57.1191L2.56618 63.2803L10.158 60.2599Z" fill="#EF5B0C"/>
<path d="M47.7689 28.6864C50.3481 30.224 52.6754 32.388 54.6864 35.1188C55.0894 35.666 55.0888 36.5524 54.6855 37.0988C54.4837 37.372 54.22 37.508 53.956 37.508C53.6916 37.508 53.427 37.3712 53.2253 37.0972C51.3965 34.614 49.2811 32.6464 46.9379 31.2496C46.4158 30.9384 46.1789 30.1124 46.4084 29.4044C46.6379 28.6968 47.2471 28.3752 47.7689 28.6864Z" fill="#EF5B0C"/>
<path d="M39.8146 14.0511L37.1599 15.8275L36.7339 19.8003C36.6776 20.3275 36.405 20.7659 36.0312 20.9303C35.9265 20.9763 35.8188 20.9987 35.7123 20.9987C35.4383 20.9987 35.1704 20.8507 34.9728 20.5759L32.9063 17.7011L29.9881 18.3799C29.6008 18.4687 29.209 18.2539 28.9784 17.8227C28.7474 17.3915 28.717 16.8199 28.8996 16.3483L30.2772 12.7951L28.8996 9.2419C28.7167 8.7703 28.7471 8.1987 28.9784 7.7675C29.2093 7.3363 29.6005 7.1215 29.9881 7.2103L32.9063 7.8887L34.9728 5.0143C35.2471 4.6327 35.6575 4.4951 36.0312 4.6599C36.405 4.8247 36.6773 5.2627 36.7339 5.7899L37.1599 9.7627L39.8146 11.5391C40.1671 11.7751 40.3901 12.2619 40.3901 12.7947C40.3901 13.3275 40.1668 13.8151 39.8146 14.0511ZM35.7592 11.9487C35.4545 11.7447 35.2433 11.3507 35.1943 10.8947L34.9913 9.0007L34.0063 10.3711C33.7692 10.7011 33.4278 10.8515 33.0924 10.7739L31.7015 10.4503L32.3585 12.1439C32.5166 12.5519 32.5166 13.0391 32.3585 13.4471L31.7015 15.1407L33.0924 14.8171C33.4275 14.7395 33.7692 14.8899 34.0063 15.2199L34.9913 16.5903L35.1943 14.6967C35.2433 14.2407 35.4542 13.8467 35.7592 13.6427L37.0248 12.7959L35.7592 11.9487Z" fill="#EF5B0C"/>
<path d="M41.3299 48.23C42.9866 48.23 44.3345 50.0576 44.3345 52.304C44.3345 54.5504 42.9866 56.378 41.3299 56.378C39.6732 56.378 38.3253 54.5504 38.3253 52.304C38.3253 50.0576 39.6732 48.23 41.3299 48.23ZM41.3299 53.578C41.8479 53.578 42.2695 53.0064 42.2695 52.304C42.2695 51.6016 41.8479 51.03 41.3299 51.03C40.8119 51.03 40.3903 51.6016 40.3903 52.304C40.3903 53.0064 40.8119 53.578 41.3299 53.578Z" fill="#EF5B0C"/>
<path d="M47.7132 20.9992C45.5748 20.9992 43.8352 18.6404 43.8352 15.7408C43.8352 12.8412 45.5748 10.4816 47.7132 10.4816C49.8517 10.4816 51.5913 12.8408 51.5913 15.7404C51.5913 18.64 49.8517 20.9992 47.7132 20.9992ZM47.7132 13.2816C46.7135 13.2816 45.9002 14.3844 45.9002 15.7404C45.9002 17.096 46.7135 18.1988 47.7132 18.1988C48.713 18.1988 49.5263 17.096 49.5263 15.7404C49.5263 14.3844 48.713 13.2816 47.7132 13.2816Z" fill="#EF5B0C"/>
</svg>
