<svg width="108" height="110" viewBox="0 0 108 110" fill="none" xmlns="http://www.w3.org/2000/svg">
<path d="M17.2014 19.5973C19.2197 19.5973 21.0333 20.5655 22.2254 22.069H47.3254C50.0201 22.069 52.5196 23.5683 53.8338 25.9831L55.0741 28.2753H11.8674V23.0679C11.8674 21.1736 13.3866 19.5973 15.2321 19.5973H17.2014ZM97.8059 66.2546C96.8495 67.3224 96.3083 68.8921 96.3083 70.8086C96.3083 72.2398 96.6116 73.4876 97.1627 74.4722L94.1146 76.5341H89.8098C88.3007 75.4454 86.4672 74.8039 84.4922 74.8039C79.6675 74.8039 75.6706 78.6271 75.2393 83.4684H64.2182V51.4888V46.3321C64.2172 46.1363 64.1838 45.9413 64.1193 45.7561L60.7414 36.0794C60.5024 35.3918 59.8693 34.9315 59.158 34.9282H12.8405C10.4538 34.9282 8.48945 36.9444 8.48945 39.3941V48.8001C8.48951 49.2547 8.66365 49.6914 8.97433 50.0156L14.0478 55.2265C14.3615 55.55 14.7871 55.7342 15.232 55.7375H59.158C59.7619 55.7375 60.3241 55.6299 60.8403 55.4501V83.4681H42.2619V60.204C42.2581 59.2465 41.4991 58.4734 40.5663 58.4772C39.6387 58.4806 38.8876 59.2518 38.884 60.204V62.6587H23.6867C22.7488 62.6553 21.9875 63.4363 21.9912 64.3991C21.993 65.3578 22.7526 66.133 23.6867 66.1293H38.884V83.4683H36.3143C35.8829 78.627 31.8893 74.8038 27.0646 74.8038C25.0916 74.8038 23.2587 75.4439 21.7504 76.5306H11.8674C10.9294 76.5271 10.1681 77.3082 10.1718 78.2709C10.1737 79.2297 10.9333 80.0049 11.8674 80.0011H18.798C18.2672 81.0592 17.9253 82.2299 17.815 83.4683H10.1718C7.35352 83.4683 5.10825 81.1636 5.10825 78.2709V74.4212L7.00503 73.9335C9.85046 73.2033 11.8674 70.5582 11.8674 67.5477V62.9802C11.8673 59.9697 9.85046 57.3247 7.00503 56.5945L5.10825 56.1136V34.9282C5.10825 33.1464 6.47645 31.742 8.21236 31.742H77.7331C79.1154 31.742 80.3501 32.5768 80.8999 33.8784L81.3419 34.9282H72.6597C69.8813 34.9282 67.5961 37.2738 67.5961 40.1255V50.5269C67.5961 53.3786 69.8813 55.7378 72.6597 55.7378H90.8951C91.1358 55.9468 91.3907 56.1402 91.6604 56.3137L100.673 62.0832C101.555 62.6493 102.223 63.4712 102.629 64.4194C102.153 64.4146 101.64 64.439 101.111 64.5262C100.016 64.7069 98.7623 65.1868 97.8059 66.2546ZM82.8099 38.3957L88.6717 52.2676H72.6597C71.7069 52.2676 70.9773 51.5053 70.9773 50.5274V40.126C70.9773 39.148 71.7069 38.3957 72.6597 38.3957H82.8099ZM42.2619 51.4889V38.3957H57.9605L60.8403 46.6369V51.4889C60.8403 52.0268 59.8109 52.2676 59.158 52.2676H43.9442C43.0707 52.2676 42.2619 51.9159 42.2619 51.4889ZM38.884 52.2676H15.9446L11.8674 48.0862V39.3944C11.8674 38.8185 12.2793 38.3957 12.8405 38.3957H38.884V52.2676ZM73.5075 59.1917H71.8251C70.8859 59.1869 70.1226 59.968 70.1263 60.9321C70.1298 61.8908 70.891 62.6645 71.8251 62.6589H73.5075C74.4402 62.6623 75.1994 61.8895 75.203 60.9321C75.2067 59.9694 74.4454 59.1879 73.5075 59.1917ZM5.10825 59.6858L6.18034 59.9606C7.5389 60.3089 8.48615 61.5435 8.48615 62.9808V67.5517C8.48615 68.9891 7.53891 70.22 6.18034 70.5685L5.10825 70.8433V59.6858ZM103.067 67.9337V73.6965C102.625 73.7404 102.116 73.7555 101.646 73.677C101.052 73.5781 100.61 73.3705 100.3 73.0237C99.9895 72.6773 99.6895 72.1016 99.6895 70.8094C99.6895 69.5173 99.9895 68.9553 100.3 68.6087C100.987 67.8571 102.103 67.8225 103.067 67.9337ZM99.9204 76.7676C100.324 76.9142 100.728 77.0291 101.111 77.0924C101.809 77.2089 102.477 77.2196 103.067 77.1836V80.0007C103.067 81.936 101.575 83.4678 99.6895 83.4678H93.7419C93.6316 82.2294 93.2863 81.0587 92.7555 80.0007H94.6127C94.9452 80.0041 95.271 79.9056 95.5496 79.7195L99.9204 76.7676ZM84.4922 78.2709C87.777 78.2709 90.4003 80.9667 90.4003 84.3384C90.4003 87.7097 87.777 90.4024 84.4922 90.4024C81.2075 90.4024 78.5677 87.7097 78.5677 84.3384C78.5677 80.9667 81.2075 78.2709 84.4922 78.2709ZM27.0646 78.2709C30.3494 78.2709 32.976 80.9667 32.9759 84.3384C32.9759 87.7097 30.3493 90.4024 27.0646 90.4024C23.7799 90.4024 21.1566 87.7097 21.1566 84.3384C21.1566 80.9667 23.7799 78.2709 27.0646 78.2709ZM84.5516 81.7346C84.5301 81.734 84.5072 81.7346 84.4856 81.7346C83.1017 81.7346 81.9522 82.9145 81.9521 84.3349C81.9521 85.7555 83.1017 86.9353 84.4856 86.9353C85.8695 86.9353 87.019 85.7555 87.019 84.3349C87.019 82.9367 85.9064 81.7707 84.5516 81.7346ZM27.1273 81.7346C27.1055 81.734 27.0831 81.7346 27.0614 81.7346C25.6775 81.7346 24.5279 82.9145 24.5279 84.3349C24.5279 85.7555 25.6774 86.9353 27.0614 86.9353C28.4453 86.9353 29.5948 85.7555 29.5948 84.3349C29.5948 82.9367 28.4821 81.7707 27.1273 81.7346Z" fill="#E1E1E1"/>
</svg>
