<svg width="54" height="56" viewBox="0 0 54 56" fill="none" xmlns="http://www.w3.org/2000/svg">
<path d="M18.36 2.23999C17.955 2.23999 17.5849 2.47516 17.4002 2.84812C17.2155 3.2222 17.247 3.66808 17.4825 4.00968L20.8933 8.95999H14.7065L12.8461 5.09905C12.6625 4.71937 12.2893 4.47999 11.88 4.47999H9.71998C9.12382 4.47999 8.63998 4.98063 8.63998 5.59999V12.32C8.63998 16.0194 14.6861 17.3467 20.4651 17.7734L16.3856 24.0122C16.161 24.3549 16.1376 24.7987 16.3244 25.165C16.5124 25.5312 16.8804 25.76 17.28 25.76H22.005C22.2793 25.76 22.5435 25.6508 22.7433 25.4559L30.4973 17.92H42.12C42.2874 17.92 42.454 17.8803 42.603 17.8019C42.7369 17.7335 43.9143 17.0847 44.1281 15.7172C44.2879 14.7013 43.8685 13.6696 42.8836 12.6481C40.6879 10.3712 38.3497 8.95999 33.48 8.95999H31.4529L23.7663 2.49155C23.5741 2.32915 23.3323 2.23999 23.085 2.23999H18.36ZM20.4588 4.47999H22.7032L28.0251 8.95999H23.5469L20.4588 4.47999ZM10.8 6.71999H11.2134L13.0739 10.5809C13.2575 10.9606 13.6307 11.2 14.04 11.2H33.48C37.6434 11.2 39.4599 12.2651 41.3564 14.2319C42.0022 14.9027 42.0117 15.26 41.9976 15.3541C41.9814 15.4784 41.8816 15.5971 41.7909 15.68H30.0712C29.7969 15.68 29.5327 15.7892 29.3329 15.9841L21.5789 23.52H19.3176L23.3254 17.395C23.5447 17.0579 23.5711 16.6247 23.3951 16.2619C23.2179 15.899 22.8674 15.664 22.4754 15.6472C14.8095 15.319 10.8 13.7245 10.8 12.32V6.71999ZM9.80857 28C7.97257 28 6.47998 29.5479 6.47998 31.4519V48.0681C6.47998 49.9721 7.97257 51.52 9.80857 51.52H12.1774C12.8483 53.4713 14.6311 54.88 16.74 54.88C18.8489 54.88 20.6317 53.4713 21.3026 51.52H32.6974C33.3683 53.4713 35.1511 54.88 37.26 54.88C39.3689 54.88 41.1517 53.4713 41.8226 51.52H45.2714C47.1074 51.52 48.6 49.9721 48.6 48.0681V41.9191C48.6 41.1317 48.3697 40.3734 47.9334 39.7272L41.8964 30.7716C40.744 29.217 38.4296 28 36.6293 28H9.80857ZM9.80857 30.24H36.6314C37.7557 30.24 39.4487 31.1441 40.1562 32.095L40.4388 32.515H36.45C35.8527 32.515 35.37 33.0156 35.37 33.635V40.355C35.37 40.9743 35.8527 41.475 36.45 41.475H46.17C46.2398 41.475 46.3 41.4465 46.3661 41.4334C46.4143 41.5888 46.44 41.7528 46.44 41.9191V48.0681C46.44 48.7368 45.9161 49.28 45.2714 49.28H42.0651C41.7926 46.7671 39.7547 44.8 37.26 44.8C34.7653 44.8 32.7274 46.7671 32.4548 49.28H21.5451C21.2726 46.7671 19.2347 44.8 16.74 44.8C14.2453 44.8 12.2074 46.7671 11.9348 49.28H9.80857C9.16381 49.28 8.63998 48.7368 8.63998 48.0681V31.4519C8.63998 30.7832 9.16381 30.24 9.80857 30.24ZM37.53 34.755H41.9491L44.9676 39.235H37.53V34.755ZM16.74 47.04C18.2282 47.04 19.44 48.2955 19.44 49.84C19.44 49.9104 19.4238 49.9765 19.4189 50.0456C19.382 50.1585 19.3514 50.274 19.3514 50.4C19.3514 50.425 19.3646 50.4454 19.3662 50.47C19.0892 51.7111 18.019 52.64 16.74 52.64C15.2517 52.64 14.04 51.3845 14.04 49.84C14.04 48.2955 15.2517 47.04 16.74 47.04ZM37.26 47.04C38.7493 47.04 39.96 48.2955 39.96 49.84C39.96 49.9104 39.9438 49.9765 39.9389 50.0456C39.902 50.1585 39.8714 50.274 39.8714 50.4C39.8714 50.425 39.8846 50.4454 39.8862 50.47C39.6095 51.7111 38.5399 52.64 37.26 52.64C35.7707 52.64 34.56 51.3845 34.56 49.84C34.56 48.2955 35.7707 47.04 37.26 47.04Z" fill="#EF5B0C"/>
</svg>
