<svg width="51" height="44" viewBox="0 0 51 44" fill="none" xmlns="http://www.w3.org/2000/svg">
<g clip-path="url(#clip0_639_71)">
<path d="M49.9375 8.1419H35.7212V3.16395C35.7212 2.32482 35.3854 1.52006 34.7877 0.9267C34.1899 0.333344 33.3791 0 32.5338 0L18.4662 0C17.6209 0 16.8101 0.333344 16.2123 0.9267C15.6146 1.52006 15.2788 2.32482 15.2788 3.16395V8.1419H1.0625C0.780707 8.1419 0.510456 8.25301 0.311199 8.4508C0.111942 8.64858 0 8.91684 0 9.19655L0 21.8523C0.000532314 22.8779 0.302349 23.8811 0.868493 24.739C1.43464 25.597 2.24053 26.2724 3.1875 26.6826V42.9454C3.1875 43.2251 3.29944 43.4933 3.4987 43.6911C3.69796 43.8889 3.96821 44 4.25 44H46.75C47.0318 44 47.302 43.8889 47.5013 43.6911C47.7006 43.4933 47.8125 43.2251 47.8125 42.9454V26.6826C48.7595 26.2724 49.5654 25.597 50.1315 24.739C50.6976 23.8811 50.9995 22.8779 51 21.8523V9.19655C51 8.91684 50.8881 8.64858 50.6888 8.4508C50.4895 8.25301 50.2193 8.1419 49.9375 8.1419ZM17.4037 3.16395C17.4037 2.88424 17.5157 2.61599 17.7149 2.4182C17.9142 2.22041 18.1845 2.1093 18.4662 2.1093H32.555C32.8368 2.1093 33.107 2.22041 33.3063 2.4182C33.5056 2.61599 33.6175 2.88424 33.6175 3.16395V8.1419H17.4037V3.16395ZM45.6875 41.8907H5.3125V27.1256H10.625V28.3912C10.6137 28.8102 10.6864 29.2273 10.8389 29.6182C10.9913 30.009 11.2205 30.366 11.5131 30.6682C11.8057 30.9704 12.1559 31.2119 12.5434 31.3787C12.9308 31.5454 13.3478 31.6341 13.77 31.6395H15.895C16.3244 31.6453 16.7506 31.565 17.1479 31.4033C17.5452 31.2416 17.9056 31.0018 18.2072 30.6984C18.5089 30.395 18.7457 30.0343 18.9034 29.6378C19.0611 29.2413 19.1365 28.8173 19.125 28.3912V27.1256H31.875V28.3912C31.875 29.2303 32.2108 30.0351 32.8086 30.6284C33.4064 31.2218 34.2171 31.5551 35.0625 31.5551H37.1875C38.0329 31.5551 38.8436 31.2218 39.4414 30.6284C40.0392 30.0351 40.375 29.2303 40.375 28.3912V27.1256H45.6875V41.8907ZM12.75 26.0709V24.3624H17V28.3701C17 28.6498 16.8881 28.9181 16.6888 29.1158C16.4895 29.3136 16.2193 29.4247 15.9375 29.4247H13.8125C13.5307 29.4247 13.2605 29.3136 13.0612 29.1158C12.8619 28.9181 12.75 28.6498 12.75 28.3701V26.0709ZM38.25 28.3912C38.25 28.6709 38.1381 28.9391 37.9388 29.1369C37.7395 29.3347 37.4693 29.4458 37.1875 29.4458H35.0625C34.7807 29.4458 34.5105 29.3347 34.3112 29.1369C34.1119 28.9391 34 28.6709 34 28.3912V24.3835H38.25V28.3912ZM48.875 21.8523C48.875 22.6915 48.5392 23.4962 47.9414 24.0896C47.3436 24.683 46.5329 25.0163 45.6875 25.0163H40.375V23.3078C40.375 23.0281 40.2631 22.7598 40.0638 22.562C39.8645 22.3642 39.5943 22.2531 39.3125 22.2531H32.9375C32.6557 22.2531 32.3855 22.3642 32.1862 22.562C31.9869 22.7598 31.875 23.0281 31.875 23.3078V25.0163H19.125V23.3078C19.125 23.0281 19.0131 22.7598 18.8138 22.562C18.6145 22.3642 18.3443 22.2531 18.0625 22.2531H11.6875C11.4057 22.2531 11.1355 22.3642 10.9362 22.562C10.7369 22.7598 10.625 23.0281 10.625 23.3078V25.0163H5.3125C4.46712 25.0163 3.65637 24.683 3.0586 24.0896C2.46083 23.4962 2.125 22.6915 2.125 21.8523V10.2512H48.875V21.8523Z" fill="#EF5B0C"/>
</g>
<defs>
<clipPath id="clip0_639_71">
<rect width="51" height="44" fill="white"/>
</clipPath>
</defs>
</svg>
