<svg width="37" height="49" viewBox="0 0 37 49" fill="none" xmlns="http://www.w3.org/2000/svg">
<path d="M33.6579 8.68843H26.8249V6.68577C26.8249 5.09236 26.3929 3.5642 25.6241 2.43749C24.8552 1.31078 23.8124 0.677795 22.7251 0.677795H14.5254C13.4381 0.677795 12.3953 1.31078 11.6264 2.43749C10.8576 3.5642 10.4256 5.09236 10.4256 6.68577V8.68843H3.59259C2.86769 8.68843 2.17249 9.11041 1.65991 9.86156C1.14734 10.6127 0.859375 11.6315 0.859375 12.6937V44.7363C0.859375 45.7985 1.14734 46.8173 1.65991 47.5685C2.17249 48.3196 2.86769 48.7416 3.59259 48.7416H33.6579C34.3828 48.7416 35.078 48.3196 35.5906 47.5685C36.1032 46.8173 36.3911 45.7985 36.3911 44.7363V12.6937C36.3911 11.6315 36.1032 10.6127 35.5906 9.86156C35.078 9.11041 34.3828 8.68843 33.6579 8.68843ZM3.59259 22.707H33.6579V34.723H3.59259V22.707ZM13.1588 6.68577C13.1588 6.15463 13.3028 5.64525 13.5591 5.26968C13.8154 4.89411 14.163 4.68311 14.5254 4.68311H22.7251C23.0875 4.68311 23.4351 4.89411 23.6914 5.26968C23.9477 5.64525 24.0917 6.15463 24.0917 6.68577V8.68843H13.1588V6.68577ZM33.6579 12.6937V18.7017H3.59259V12.6937H33.6579ZM33.6579 44.7363H3.59259V38.7283H33.6579V44.7363Z" fill="#EF5B0C"/>
</svg>
