<svg width="63" height="59" viewBox="0 0 63 59" fill="none" xmlns="http://www.w3.org/2000/svg">
<g clip-path="url(#clip0_638_63)">
<path fill-rule="evenodd" clip-rule="evenodd" d="M17.8935 7.92054H45.1065V12.4162H17.8935V7.92054ZM61.3225 11.8767H59.645C58.8994 11.8767 58.1538 12.4162 57.9675 13.1355L55.5444 14.2145V5.04329C55.5444 3.7845 54.426 2.70553 53.1213 2.70553H47.716C47.716 2.70553 47.716 2.52571 47.716 2.34588C47.716 1.08708 46.784 0.00811768 45.4793 0.00811768H17.5207C16.216 0.00811768 15.284 1.08708 15.284 2.34588C15.284 2.52571 15.284 2.70553 15.284 2.70553H9.8787C8.57396 2.70553 7.45562 3.7845 7.45562 5.04329V14.2145L5.21893 13.1355C4.84615 12.4162 4.28698 11.8767 3.54142 11.8767H1.86391C0.745562 11.8767 0 12.7759 0 13.675V19.6093C0 20.5085 0.745562 21.2278 1.86391 21.2278H3.54142C4.47337 21.2278 5.21893 20.5085 5.21893 19.6093V15.1136L7.45562 16.1926V33.8157H55.5444V16.1926L57.7811 15.1136V19.6093C57.7811 20.5085 58.5266 21.2278 59.645 21.2278H61.3225C62.2544 21.2278 63 20.5085 63 19.6093V13.675C63 12.7759 62.2544 11.8767 61.3225 11.8767ZM20.503 46.044C19.1982 46.044 19.1982 44.0659 20.503 44.0659H42.497C43.8018 44.0659 43.8018 46.044 42.497 46.044H20.503ZM20.503 43.3466C19.1982 43.3466 19.1982 41.5483 20.503 41.5483H42.497C43.8018 41.5483 43.8018 43.3466 42.497 43.3466H20.503ZM20.503 40.829C19.1982 40.829 19.1982 39.0307 20.503 39.0307H42.497C43.8018 39.0307 43.8018 40.829 42.497 40.829H20.503ZM7.45562 34.8947H55.5444V36.5131H7.45562V34.8947ZM7.26923 48.2019H55.9172C56.6627 48.2019 57.2219 48.9212 57.2219 49.6406V51.9783C57.2219 52.6976 56.6627 53.4169 55.9172 53.4169H52.5621V57.7328C52.5621 58.4521 51.8166 58.9916 51.2574 58.9916H46.2249C45.4793 58.9916 44.9201 58.4521 44.9201 57.7328V53.4169H18.0799V57.7328C18.0799 58.4521 17.5207 58.9916 16.7751 58.9916H11.929C11.1834 58.9916 10.6243 58.4521 10.6243 57.7328V53.4169H7.26923C6.33728 53.4169 5.77811 52.6976 5.77811 51.9783V49.6406C5.77811 48.9212 6.33728 48.2019 7.26923 48.2019ZM10.8107 38.8509C12.1154 38.8509 13.0473 39.9299 13.0473 41.0088C13.0473 42.2676 12.1154 43.1668 10.8107 43.1668C9.69231 43.1668 8.57396 42.2676 8.57396 41.0088C8.57396 39.9299 9.69231 38.8509 10.8107 38.8509ZM14.5385 42.2676C15.4704 42.2676 16.216 42.9869 16.216 43.7062C16.216 44.6054 15.4704 45.3247 14.5385 45.3247C13.7929 45.3247 13.0473 44.6054 13.0473 43.7062C13.0473 42.9869 13.7929 42.2676 14.5385 42.2676ZM52.1893 38.8509C50.8846 38.8509 49.9527 39.9299 49.9527 41.0088C49.9527 42.2676 50.8846 43.1668 52.1893 43.1668C53.4941 43.1668 54.426 42.2676 54.426 41.0088C54.426 39.9299 53.4941 38.8509 52.1893 38.8509ZM48.4615 42.2676C47.5296 42.2676 46.784 42.9869 46.784 43.7062C46.784 44.6054 47.5296 45.3247 48.4615 45.3247C49.3935 45.3247 49.9527 44.6054 49.9527 43.7062C49.9527 42.9869 49.3935 42.2676 48.4615 42.2676ZM8.38757 10.4381H16.9615V6.84157H46.2249V10.4381H54.6124V32.9166H8.38757V10.4381ZM55.5444 37.5921V47.6625H7.45562V37.5921H55.5444Z" fill="#EF5B0C"/>
</g>
<defs>
<clipPath id="clip0_638_63">
<rect width="63" height="59" fill="white"/>
</clipPath>
</defs>
</svg>
