<svg width="40" height="60" viewBox="0 0 40 60" fill="none" xmlns="http://www.w3.org/2000/svg">
<path fill-rule="evenodd" clip-rule="evenodd" d="M26.3287 8.16806H13.5953V5.71455H26.3287V8.16806ZM32.6954 33.2626C30.795 33.9397 26.472 35.1567 19.962 35.1567C13.4504 35.1567 9.12742 33.9397 7.22854 33.2626V13.0751H32.6954V33.2626ZM33.4913 10.6216H6.4327C5.9934 10.6216 5.63686 11.1712 5.63686 11.8483V35.1567C5.63686 35.1567 10.5679 37.6102 19.962 37.6102C29.3561 37.6102 34.2871 35.1567 34.2871 35.1567V11.8483C34.2871 11.1712 33.9306 10.6216 33.4913 10.6216ZM24.737 46.1975C24.737 46.8746 24.3805 47.4242 23.9412 47.4242H15.9828C15.5435 47.4242 15.1869 46.8746 15.1869 46.1975C15.1869 45.5203 15.5435 44.9707 15.9828 44.9707H23.9412C24.3805 44.9707 24.737 45.5203 24.737 46.1975ZM31.1038 47.4242C30.2251 47.4242 29.5121 46.325 29.5121 44.9707C29.5121 43.6164 30.2251 42.5172 31.1038 42.5172C31.9824 42.5172 32.6954 43.6164 32.6954 44.9707C32.6954 46.325 31.9824 47.4242 31.1038 47.4242ZM31.1038 40.0637C29.3465 40.0637 27.9204 42.262 27.9204 44.9707C27.9204 47.6794 29.3465 49.8777 31.1038 49.8777C32.861 49.8777 34.2871 47.6794 34.2871 44.9707C34.2871 42.262 32.861 40.0637 31.1038 40.0637ZM8.82022 47.4242C7.94321 47.4242 7.22854 46.325 7.22854 44.9707C7.22854 43.6164 7.94321 42.5172 8.82022 42.5172C9.69724 42.5172 10.4119 43.6164 10.4119 44.9707C10.4119 46.325 9.69724 47.4242 8.82022 47.4242ZM8.82022 40.0637C7.06301 40.0637 5.63686 42.262 5.63686 44.9707C5.63686 47.6794 7.06301 49.8777 8.82022 49.8777C10.5774 49.8777 12.0036 47.6794 12.0036 44.9707C12.0036 42.262 10.5774 40.0637 8.82022 40.0637ZM37.4705 27.7961H35.8788V49.8777C35.8788 51.4014 35.0511 52.3312 34.2871 52.3312H5.63686C4.65479 52.3312 4.04518 51.0652 4.04518 49.8777V27.7961H2.4535V20.4356H4.04518V8.16806C4.04518 5.46183 5.47292 3.26104 7.22854 3.26104H32.6954C34.4511 3.26104 35.8788 5.46183 35.8788 8.16806V20.4356H37.4705V27.7961ZM32.6954 57.2383H29.5121V54.7847H32.6954V57.2383ZM10.4119 57.2383H7.22854V54.7847H10.4119V57.2383ZM37.4705 17.9821V8.16806C37.4705 4.10259 35.3329 0.807526 32.6954 0.807526H7.22854C4.59113 0.807526 2.4535 4.10259 2.4535 8.16806V17.9821C1.57489 17.9821 0.861816 19.0813 0.861816 20.4356V27.7961C0.861816 29.1505 1.57489 30.2496 2.4535 30.2496V49.8777C2.4535 52.9176 4.10407 54.7847 5.63686 54.7847V57.2383C5.63686 58.5926 6.34993 59.6918 7.22854 59.6918H10.4119C11.2905 59.6918 12.0036 58.5926 12.0036 57.2383V54.7847H27.9204V57.2383C27.9204 58.5926 28.6335 59.6918 29.5121 59.6918H32.6954C33.574 59.6918 34.2871 58.5926 34.2871 57.2383V54.7847C35.8119 54.7847 37.4705 52.925 37.4705 49.8777V30.2496C38.3491 30.2496 39.0622 29.1505 39.0622 27.7961V20.4356C39.0622 19.0813 38.3491 17.9821 37.4705 17.9821Z" fill="#EF5B0C"/>
</svg>
