<svg width="47" height="49" viewBox="0 0 47 49" fill="none" xmlns="http://www.w3.org/2000/svg">
<path fill-rule="evenodd" clip-rule="evenodd" d="M33.0104 0.133892L35.6701 5.23408C36.372 6.58107 37.5524 7.38878 38.8179 7.38878H46.2523V48.4998H0.851562V7.38878H12.0693C13.3349 7.38878 14.5153 6.58107 15.2171 5.23408L17.8768 0.133892H33.0104ZM38.8179 9.80708C36.9149 9.80708 35.1518 8.59793 34.0963 6.57382L31.9984 2.55219H18.8889L16.791 6.57624C15.7373 8.59793 13.9724 9.80708 12.0693 9.80708H2.74326V46.0815H44.3606V9.80708H38.8179ZM25.4758 12.2254C31.7392 12.2254 36.826 18.7282 36.826 26.7352C36.826 34.7421 31.7392 41.2449 25.4758 41.2449C19.2124 41.2449 14.1256 34.7421 14.1256 26.7352C14.1256 18.7282 19.2124 12.2254 25.4758 12.2254ZM25.4758 14.6437C30.6969 14.6437 34.9343 20.0607 34.9343 26.7352C34.9343 33.4097 30.6969 38.8266 25.4758 38.8266C20.2547 38.8266 16.0173 33.4097 16.0173 26.7352C16.0173 20.0607 20.2547 14.6437 25.4758 14.6437ZM25.4758 19.4803C28.6084 19.4803 31.1509 22.7305 31.1509 26.7352C31.1509 30.7399 28.6084 33.9901 25.4758 33.9901C22.3431 33.9901 19.8007 30.7399 19.8007 26.7352C19.8007 22.7305 22.3431 19.4803 25.4758 19.4803ZM25.4758 21.8986C27.5642 21.8986 29.2592 24.0654 29.2592 26.7352C29.2592 29.405 27.5642 31.5718 25.4758 31.5718C23.3874 31.5718 21.6924 29.405 21.6924 26.7352C21.6924 24.0654 23.3874 21.8986 25.4758 21.8986ZM10.3422 17.062C10.3422 15.7271 9.49662 14.6437 8.45051 14.6437C7.4044 14.6437 6.55881 15.7271 6.55881 17.062C6.55881 18.3969 7.4044 19.4803 8.45051 19.4803C9.49662 19.4803 10.3422 18.3969 10.3422 17.062ZM4.66712 2.55219H10.3441V4.97049H4.66712V2.55219Z" fill="#EF5B0C"/>
</svg>
