<svg width="45" height="50" viewBox="0 0 45 50" fill="none" xmlns="http://www.w3.org/2000/svg">
<path d="M16.7199 11.0841C16.3349 10.6591 15.8594 10.3483 15.3373 10.1803C14.8152 10.0123 14.2633 9.99261 13.7325 10.123C13.2017 10.2534 12.7092 10.5297 12.3003 10.9264C11.8914 11.3231 11.5793 11.8274 11.3929 12.3928L0.638656 45.1382C0.461989 45.6782 0.404924 46.2572 0.47225 46.8267C0.539575 47.3961 0.729328 47.9394 1.02558 48.4109C1.32183 48.8824 1.71593 49.2683 2.1748 49.5362C2.63368 49.8042 3.14392 49.9464 3.66272 49.9509C4.04469 49.948 4.42328 49.8713 4.78138 49.7241L34.3602 37.8171C34.8711 37.611 35.3269 37.2658 35.6855 36.8132C36.0441 36.3607 36.2939 35.8155 36.4119 35.2279C36.5299 34.6403 36.5123 34.0292 36.3607 33.4511C36.2091 32.8731 35.9284 32.3466 35.5445 31.9203L16.7199 11.0841ZM15.0132 41.7498L7.84232 33.8118L10.5386 25.5994L22.432 38.7651L15.0132 41.7498ZM3.74467 46.2858L6.61303 37.5744L11.6224 43.1197L3.74467 46.2858ZM25.8392 37.3952L11.7761 21.8277L14.4395 13.6923L33.1719 34.4287L25.8392 37.3952ZM26.6587 15.4773C26.6895 14.2507 26.9578 13.0457 27.4455 11.9437C28.5313 9.54189 30.5802 8.21965 33.2149 8.21965C34.5877 8.21965 35.4687 7.70028 36.0116 6.58442C36.2975 5.96014 36.4615 5.27627 36.4931 4.57723C36.4947 4.09602 36.6689 3.63524 36.9775 3.29625C37.286 2.95726 37.7036 2.76783 38.1383 2.76964C38.573 2.77144 38.9892 2.96433 39.2955 3.30587C39.6017 3.64741 39.7728 4.10963 39.7712 4.59084C39.7712 7.50749 38.0256 11.8485 33.2149 11.8485C31.8422 11.8485 30.9612 12.3678 30.4183 13.4837C30.1324 14.108 29.9684 14.7918 29.9368 15.4909C29.936 15.7291 29.8928 15.9649 29.8097 16.1847C29.7266 16.4045 29.6052 16.604 29.4524 16.7719C29.2996 16.9397 29.1185 17.0726 28.9193 17.163C28.7202 17.2533 28.5069 17.2994 28.2916 17.2985C28.0764 17.2976 27.8634 17.2498 27.6649 17.1577C27.4663 17.0657 27.2861 16.9313 27.1344 16.7622C26.9828 16.5931 26.8628 16.3926 26.7811 16.1721C26.6995 15.9516 26.6579 15.7155 26.6587 15.4773ZM21.7415 8.21965V2.77644C21.7415 2.29523 21.9142 1.83373 22.2216 1.49346C22.529 1.1532 22.9459 0.962036 23.3806 0.962036C23.8153 0.962036 24.2322 1.1532 24.5396 1.49346C24.847 1.83373 25.0197 2.29523 25.0197 2.77644V8.21965C25.0197 8.70086 24.847 9.16236 24.5396 9.50262C24.2322 9.84289 23.8153 10.0341 23.3806 10.0341C22.9459 10.0341 22.529 9.84289 22.2216 9.50262C21.9142 9.16236 21.7415 8.70086 21.7415 8.21965ZM42.5699 26.8944C42.722 27.063 42.8427 27.2631 42.925 27.4833C43.0073 27.7035 43.0496 27.9394 43.0495 28.1777C43.0494 28.416 43.0069 28.652 42.9244 28.8721C42.842 29.0922 42.7211 29.2922 42.5689 29.4606C42.4166 29.6291 42.2358 29.7626 42.0369 29.8537C41.838 29.9448 41.6248 29.9917 41.4095 29.9916C41.1942 29.9915 40.9811 29.9444 40.7823 29.8531C40.5834 29.7618 40.4028 29.6281 40.2506 29.4595L36.9725 25.8307C36.6649 25.4902 36.4922 25.0285 36.4922 24.547C36.4922 24.0655 36.6649 23.6038 36.9725 23.2633C37.28 22.9229 37.6972 22.7316 38.1321 22.7316C38.5671 22.7316 38.9842 22.9229 39.2918 23.2633L42.5699 26.8944ZM43.5676 17.1987L38.6505 19.0131C38.238 19.1653 37.7879 19.1298 37.3991 18.9146C37.0102 18.6994 36.7145 18.322 36.5771 17.8655C36.4396 17.4089 36.4716 16.9106 36.666 16.4802C36.8604 16.0497 37.2013 15.7224 37.6138 15.5702L42.5309 13.7558C42.9434 13.6037 43.3935 13.6391 43.7824 13.8543C44.1712 14.0695 44.4669 14.4469 44.6044 14.9035C44.7418 15.36 44.7098 15.8583 44.5154 16.2887C44.321 16.7192 43.9801 17.0465 43.5676 17.1987Z" fill="#EF5B0C"/>
</svg>
