<svg width="43" height="48" viewBox="0 0 43 48" fill="none" xmlns="http://www.w3.org/2000/svg">
<path d="M34.3852 19.544L40.5967 13.0467L40.633 13.0065C41.9123 11.5843 42.6311 9.65541 42.6311 7.64416C42.6311 5.63291 41.9123 3.70403 40.633 2.28187C39.3536 0.859696 37.6184 0.06073 35.8092 0.06073C33.9999 0.06073 32.2647 0.859696 30.9853 2.28187C30.9853 2.29608 30.9619 2.30793 30.9491 2.32215L25.1042 9.22702L7.41195 2.07098C7.10702 1.94769 6.77677 1.92367 6.45999 2.00173C6.14321 2.0798 5.85303 2.25672 5.62354 2.51171L0.507694 8.19864C0.329425 8.39696 0.192951 8.63678 0.108103 8.9008C0.023256 9.16482 -0.00785158 9.44648 0.0170222 9.72548C0.041896 10.0045 0.122132 10.2739 0.251948 10.5142C0.381765 10.7546 0.55793 10.96 0.76775 11.1156L14.3866 21.2075L11.2275 24.7073H6.81724C6.36557 24.7075 5.93244 24.9069 5.61288 25.2618L0.497036 30.9487C0.297522 31.1699 0.150442 31.4427 0.0689494 31.7426C-0.012543 32.0425 -0.0259079 32.3601 0.03005 32.6672C0.0860078 32.9742 0.209544 33.261 0.389611 33.502C0.569679 33.743 0.800664 33.9306 1.06191 34.0481L8.91047 37.5384L12.0439 46.2465L12.0567 46.2844C12.1651 46.5761 12.3373 46.8331 12.5577 47.0321C12.7781 47.2311 13.0396 47.3657 13.3187 47.4238C13.5977 47.482 13.8854 47.4617 14.1557 47.365C14.4259 47.2682 14.6701 47.098 14.8662 46.8697L19.9543 41.2112C20.1135 41.0359 20.2401 40.8274 20.3268 40.5977C20.4134 40.368 20.4585 40.1215 20.4595 39.8724V34.9698L23.6057 31.4724L32.6842 46.6114C32.8242 46.8447 33.0089 47.0405 33.2252 47.1848C33.4414 47.3291 33.6837 47.4183 33.9347 47.446C34.1857 47.4736 34.4391 47.439 34.6766 47.3447C34.9141 47.2504 35.1298 47.0987 35.3082 46.9005L40.4241 41.2136C40.6535 40.9585 40.8126 40.6359 40.8828 40.2838C40.9531 39.9316 40.9315 39.5645 40.8206 39.2255L34.3852 19.544ZM34.3703 42.5832L25.2918 27.4465C25.1527 27.2115 24.9682 27.0138 24.7517 26.8679C24.5353 26.722 24.2924 26.6315 24.0406 26.6029C23.983 26.6029 23.9276 26.6029 23.8722 26.6029C23.648 26.6031 23.4261 26.6523 23.2191 26.7478C23.0121 26.8434 22.824 26.9834 22.6657 27.1598L17.5499 32.8467C17.2299 33.2015 17.0497 33.6831 17.0489 34.1855V39.0881L14.2629 42.1851L11.8116 35.3703C11.7258 35.1337 11.598 34.9188 11.4357 34.7384C11.2735 34.558 11.0801 34.4159 10.8673 34.3206L4.74106 31.5956L7.52493 28.4986H11.9331C12.1571 28.4988 12.3789 28.4499 12.5859 28.3548C12.793 28.2596 12.9811 28.1201 13.1396 27.9441L18.2554 22.2572C18.4341 22.0588 18.5709 21.8189 18.656 21.5546C18.741 21.2904 18.7723 21.0084 18.7474 20.7291C18.7225 20.4498 18.6421 20.1801 18.5121 19.9395C18.382 19.6989 18.2055 19.4934 17.9954 19.3379L4.37868 9.24361L7.25635 6.04708L24.9955 13.2173C25.3081 13.345 25.6474 13.3682 25.9717 13.2839C26.2959 13.1997 26.5909 13.0118 26.8202 12.7434L33.4154 4.94524C34.0582 4.25155 34.9208 3.86689 35.8166 3.87438C36.7125 3.88188 37.5698 4.28094 38.2031 4.98531C38.8365 5.68968 39.1951 6.6428 39.2014 7.63869C39.2078 8.63458 38.8614 9.59326 38.2371 10.3075L31.2305 17.6366C30.989 17.8915 30.82 18.2194 30.7442 18.5798C30.6685 18.9402 30.6893 19.3175 30.8042 19.6649L37.2544 39.3843L34.3703 42.5832Z" fill="#EF5B0C"/>
</svg>
