<svg width="73" height="74" viewBox="0 0 73 74" fill="none" xmlns="http://www.w3.org/2000/svg">
<path d="M21.9533 33.0302C21.7516 33.0302 21.5582 32.949 21.4156 32.8044C21.273 32.6599 21.1929 32.4638 21.1929 32.2594V28.5208C21.2291 27.8393 21.5216 27.1977 22.0104 26.7282C22.4991 26.2587 23.1468 25.9971 23.8201 25.9971C24.4934 25.9971 25.1411 26.2587 25.6299 26.7282C26.1186 27.1977 26.4112 27.8393 26.4473 28.5208V30.0625C26.4473 30.2669 26.3672 30.463 26.2246 30.6076C26.082 30.7521 25.8886 30.8333 25.6869 30.8333C25.4853 30.8333 25.2918 30.7521 25.1492 30.6076C25.0066 30.463 24.9265 30.2669 24.9265 30.0625V28.5208C24.9035 28.2394 24.7769 27.9771 24.572 27.7858C24.367 27.5946 24.0987 27.4885 23.8201 27.4885C23.5416 27.4885 23.2732 27.5946 23.0682 27.7858C22.8633 27.9771 22.7367 28.2394 22.7137 28.5208V32.2979C22.7039 32.4956 22.6195 32.6819 22.478 32.8182C22.3364 32.9545 22.1485 33.0304 21.9533 33.0302Z" fill="#EF5B0C"/>
<path d="M50.0964 71.2404C50.0259 71.2517 49.954 71.2517 49.8835 71.2404L38.7358 67.9952L37.1617 70.8473C37.0954 70.9659 36.9992 71.0646 36.883 71.1332C36.7668 71.2019 36.6347 71.2381 36.5002 71.2381C36.3657 71.2381 36.2335 71.2019 36.1173 71.1332C36.0011 71.0646 35.9049 70.9659 35.8386 70.8473L34.2645 67.9952L23.1168 71.2096C23.0035 71.2431 22.884 71.2494 22.7679 71.228C22.6517 71.2066 22.5421 71.1581 22.4477 71.0863C22.3532 71.0145 22.2766 70.9213 22.2238 70.8143C22.171 70.7073 22.1435 70.5893 22.1435 70.4696V67.2167C22.1429 67.0884 22.1739 66.962 22.2336 66.8489C22.2934 66.7359 22.38 66.6397 22.4857 66.5692L32.2266 60.0633L30.4168 41.7483L2.47912 49.2794C2.36633 49.3106 2.24797 49.315 2.13323 49.2922C2.0185 49.2695 1.91047 49.2203 1.81756 49.1483C1.72852 49.079 1.65574 48.9904 1.60446 48.8891C1.55319 48.7878 1.52468 48.6763 1.521 48.5625V44.0531C1.52102 43.9194 1.55538 43.7879 1.62071 43.6717C1.68604 43.5554 1.78009 43.4584 1.8936 43.3902L30.5461 26.2083V14.7615C30.5407 11.9113 31.4185 9.13143 33.0555 6.81417L35.5572 3.25292C35.6697 3.10856 35.813 2.99189 35.9763 2.91168C36.1396 2.83146 36.3187 2.78979 36.5002 2.78979C36.6816 2.78979 36.8607 2.83146 37.024 2.91168C37.1874 2.99189 37.3306 3.10856 37.4431 3.25292L39.9449 6.81417C41.5818 9.13143 42.4596 11.9113 42.4542 14.7615V26.2083L71.1067 43.3902C71.2202 43.4584 71.3143 43.5554 71.3796 43.6717C71.4449 43.7879 71.4793 43.9194 71.4793 44.0531V48.5625C71.4791 48.6802 71.4522 48.7963 71.4008 48.9019C71.3494 49.0074 71.2748 49.0997 71.1828 49.1715C71.0899 49.2434 70.9818 49.2926 70.8671 49.3154C70.7524 49.3381 70.634 49.3337 70.5212 49.3025L42.5835 41.7483L40.7737 60.0633L50.5146 66.5692C50.6203 66.6397 50.707 66.7359 50.7667 66.8489C50.8265 66.962 50.8574 67.0884 50.8568 67.2167V70.4696C50.8568 70.674 50.7767 70.8701 50.6341 71.0146C50.4915 71.1592 50.2981 71.2404 50.0964 71.2404ZM38.3632 66.2917C38.4314 66.2842 38.5003 66.2842 38.5685 66.2917L49.336 69.375V67.6329L39.5418 61.0963C39.426 61.0181 39.3335 60.9092 39.2745 60.7814C39.2155 60.6536 39.1923 60.5119 39.2072 60.3717L41.1767 40.6923C41.1882 40.581 41.2235 40.4736 41.2801 40.3775C41.3366 40.2814 41.4132 40.199 41.5043 40.1359C41.5955 40.0728 41.6991 40.0306 41.808 40.0122C41.9169 39.9938 42.0284 39.9997 42.1349 40.0294L69.9585 47.5373V44.454L41.3136 27.3183C41.1987 27.2511 41.1031 27.1545 41.0364 27.0382C40.9697 26.9219 40.9342 26.7899 40.9334 26.6554V14.7615C40.9378 12.2331 40.1613 9.76676 38.713 7.70834L36.5002 4.57105L34.2874 7.70834C32.839 9.76676 32.0626 12.2331 32.0669 14.7615V26.6554C32.0661 26.7899 32.0306 26.9219 31.9639 27.0382C31.8972 27.1545 31.8017 27.2511 31.6867 27.3183L3.04183 44.4925V47.5758L30.8579 40.0679C30.9643 40.0382 31.0758 40.0324 31.1847 40.0508C31.2936 40.0692 31.3972 40.1114 31.4884 40.1744C31.5796 40.2375 31.6561 40.32 31.7127 40.416C31.7692 40.5121 31.8045 40.6196 31.816 40.7308L33.7855 60.4102C33.8005 60.5505 33.7772 60.6922 33.7182 60.8199C33.6592 60.9477 33.5667 61.0566 33.4509 61.1348L23.6643 67.6329V69.4444L34.4318 66.361C34.5963 66.3152 34.7712 66.3268 34.9285 66.3939C35.0857 66.461 35.2161 66.5797 35.2987 66.731L36.5002 68.8894L37.7016 66.7156C37.7636 66.5908 37.8579 66.4854 37.9745 66.4107C38.091 66.3361 38.2254 66.2949 38.3632 66.2917Z" fill="#EF5B0C"/>
<path d="M51.0468 33.0302C50.8451 33.0302 50.6517 32.949 50.5091 32.8044C50.3665 32.6599 50.2864 32.4638 50.2864 32.2594V28.5208C50.2633 28.2394 50.1368 27.9771 49.9319 27.7858C49.7269 27.5946 49.4585 27.4885 49.18 27.4885C48.9014 27.4885 48.633 27.5946 48.4281 27.7858C48.2231 27.9771 48.0966 28.2394 48.0736 28.5208V30.0625C48.0736 30.2669 47.9935 30.463 47.8508 30.6076C47.7082 30.7521 47.5148 30.8333 47.3132 30.8333C47.1115 30.8333 46.9181 30.7521 46.7755 30.6076C46.6328 30.463 46.5527 30.2669 46.5527 30.0625V28.5208C46.5889 27.8393 46.8815 27.1977 47.3702 26.7282C47.859 26.2587 48.5067 25.9971 49.18 25.9971C49.8533 25.9971 50.501 26.2587 50.9897 26.7282C51.4785 27.1977 51.771 27.8393 51.8072 28.5208V32.2979C51.7974 32.4956 51.713 32.6819 51.5715 32.8182C51.4299 32.9545 51.2421 33.0304 51.0468 33.0302Z" fill="#EF5B0C"/>
</svg>
